<svg data-v-0dd9719b="" version="1.0" xmlns="http://www.w3.org/2000/svg"
    xmlns:xlink="http://www.w3.org/1999/xlink" width="100%" height="100%"
    viewBox="0 0 340.000000 250.000000" preserveAspectRatio="xMidYMid meet"
    color-interpolation-filters="sRGB" style="margin: auto;">
    <rect data-v-0dd9719b="" x="0" y="0" width="100%" height="100%" fill="#284a6e" fill-opacity="1"
        class="background"></rect>
    <rect data-v-0dd9719b="" x="0" y="0" width="100%" height="100%" fill="url(#watermark)"
        fill-opacity="1" class="watermarklayer"></rect>
    <g data-v-0dd9719b="" fill="#69b0ab" class="basesvg"
        transform="translate(66.32000017166138,94.35199928283691)">
        <g data-gra="path-name" fill-rule="" class="tp-name" transform="translate(0,0)">
            <g transform="scale(1)">
                <g>
                    <path
                        d="M45.41-42.83L45.41 0 30.23 0 14.59-30.18 14.33-30.18Q14.88-23.06 14.88-19.31L14.88-19.31 14.88 0 4.63 0 4.63-42.83 19.75-42.83 35.33-13.07 35.51-13.07Q35.1-19.54 35.1-23.47L35.1-23.47 35.1-42.83 45.41-42.83ZM70.02 0.59L70.02 0.59Q61.73 0.59 57.14-3.82 52.56-8.23 52.56-16.38L52.56-16.38Q52.56-24.79 56.81-29.28 61.05-33.78 68.94-33.78L68.94-33.78Q76.44-33.78 80.52-29.87 84.61-25.96 84.61-18.6L84.61-18.6 84.61-13.51 64.13-13.51Q64.25-10.72 66.17-9.14 68.09-7.56 71.4-7.56L71.4-7.56Q74.41-7.56 76.95-8.13 79.48-8.7 82.44-10.08L82.44-10.08 82.44-1.85Q79.75-0.47 76.88 0.06 74 0.59 70.02 0.59ZM69.35-25.99L69.35-25.99Q67.32-25.99 65.96-24.71 64.6-23.44 64.37-20.71L64.37-20.71 74.21-20.71Q74.15-23.12 72.85-24.55 71.54-25.99 69.35-25.99ZM87.42 0L98.12-16.93 87.98-33.19 100.99-33.19 106.03-23.88 111.18-33.19 124.22-33.19 113.82-16.93 124.63 0 111.62 0 106.03-10.08 100.46 0 87.42 0ZM145.14-8.47L145.14-8.47Q147.45-8.47 150.67-9.61L150.67-9.61 150.67-1.26Q148.36-0.26 146.26 0.16 144.17 0.59 141.36 0.59L141.36 0.59Q135.59 0.59 133.04-2.24 130.49-5.07 130.49-10.93L130.49-10.93 130.49-24.61 126.47-24.61 126.47-29.27 131.57-32.87 134.53-39.84 142.03-39.84 142.03-33.19 150.18-33.19 150.18-24.61 142.03-24.61 142.03-11.69Q142.03-8.47 145.14-8.47ZM196.08 0L183.43 0 181.32-8.03 167.4-8.03 165.23 0 152.52 0 166.49-43.01 181.93-43.01 196.08 0ZM169.8-17.52L178.92-17.52 177.07-24.55Q176.43-26.89 175.5-30.62 174.58-34.34 174.29-35.95L174.29-35.95Q174.02-34.45 173.25-31.03 172.47-27.6 169.8-17.52L169.8-17.52ZM211.55-33.19L211.55 0 200.1 0 200.1-33.19 211.55-33.19ZM199.8-41.46L199.8-41.46Q199.8-44.03 201.24-45.29 202.68-46.55 205.87-46.55L205.87-46.55Q209.06-46.55 210.53-45.26 211.99-43.97 211.99-41.46L211.99-41.46Q211.99-36.42 205.87-36.42L205.87-36.42Q199.8-36.42 199.8-41.46Z"
                        transform="translate(-4.630000114440918, 46.54999923706055)"></path>
                </g> <!----> <!----> <!----> <!----> <!----> <!----> <!---->
            </g>
        </g>
        <g data-gra="path-slogan" fill-rule="" class="tp-slogan" fill="#e7dfd4"
            transform="translate(5.000007629394531,53.13999938964844)">
            <rect x="0" height="1" y="3.580000400543213" width="23.224998474121094"></rect>
            <rect height="1" y="3.580000400543213" width="23.224998474121094" x="174.13500213623047"></rect>
            <g transform="translate(26.224998474121094,0)">
                <g transform="scale(1)">
                    <path
                        d="M2.71-7.03L2.71 0L3.72 0L3.72-7.03L6.10-7.03L6.10-7.87L0.34-7.87L0.34-7.03ZM7.51-7.87L7.51 0L8.51 0L8.51-3.71L12.17-3.71L12.17 0L13.18 0L13.18-7.87L12.17-7.87L12.17-4.57L8.51-4.57L8.51-7.87ZM15.34-7.87L15.34 0L19.99 0L19.99-0.85L16.33-0.85L16.33-3.71L19.32-3.71L19.32-4.56L16.33-4.56L16.33-7.03L19.87-7.03L19.87-7.87ZM27.43-3.20L25.07-3.20L25.44-4.40C25.58-4.84 25.72-5.28 25.85-5.72C25.98-6.15 26.10-6.60 26.22-7.06L26.27-7.06C26.40-6.60 26.52-6.15 26.65-5.72C26.78-5.28 26.92-4.84 27.06-4.40ZM27.68-2.40L28.43 0L29.50 0L26.83-7.87L25.70-7.87L23.04 0L24.06 0L24.82-2.40ZM30.61-7.87L30.61 0L31.61 0L31.61-7.87ZM39.10 0.14C39.59 0.14 40.05 0.05 40.46-0.14C40.87-0.34 41.23-0.61 41.53-0.97C41.83-1.32 42.06-1.75 42.22-2.26C42.39-2.77 42.47-3.34 42.47-3.97C42.47-4.60 42.39-5.16 42.22-5.66C42.06-6.16 41.83-6.58 41.53-6.93C41.23-7.28 40.87-7.55 40.46-7.73C40.05-7.92 39.59-8.02 39.10-8.02C38.60-8.02 38.15-7.92 37.73-7.74C37.32-7.56 36.97-7.29 36.67-6.94C36.38-6.59 36.15-6.17 35.98-5.67C35.82-5.17 35.74-4.60 35.74-3.97C35.74-3.34 35.82-2.77 35.98-2.26C36.15-1.75 36.38-1.32 36.67-0.97C36.97-0.61 37.32-0.34 37.73-0.14C38.15 0.05 38.60 0.14 39.10 0.14ZM39.10-0.73C38.74-0.73 38.43-0.81 38.14-0.96C37.86-1.11 37.61-1.33 37.41-1.61C37.21-1.90 37.05-2.24 36.94-2.63C36.82-3.03 36.77-3.48 36.77-3.97C36.77-4.46 36.82-4.90 36.94-5.29C37.05-5.68 37.21-6.02 37.41-6.29C37.61-6.56 37.86-6.77 38.14-6.92C38.43-7.07 38.74-7.14 39.10-7.14C39.45-7.14 39.77-7.07 40.05-6.92C40.33-6.77 40.58-6.56 40.78-6.29C40.99-6.02 41.14-5.68 41.26-5.29C41.37-4.90 41.42-4.46 41.42-3.97C41.42-3.48 41.37-3.03 41.26-2.63C41.14-2.24 40.99-1.90 40.78-1.61C40.58-1.33 40.33-1.11 40.05-0.96C39.77-0.81 39.45-0.73 39.10-0.73ZM44.16-7.87L44.16 0L45.16 0L45.16-3.53L48.16-3.53L48.16-4.37L45.16-4.37L45.16-7.03L48.70-7.03L48.70-7.87ZM52.51-7.87L52.51 0L53.46 0L53.46-4.12C53.46-4.53 53.45-4.95 53.42-5.36C53.39-5.77 53.36-6.18 53.33-6.58L53.38-6.58L54.23-4.96L57.08 0L58.12 0L58.12-7.87L57.17-7.87L57.17-3.80C57.17-3.39 57.18-2.97 57.21-2.54C57.24-2.11 57.26-1.70 57.29-1.30L57.24-1.30L56.39-2.93L53.54-7.87ZM60.28-7.87L60.28 0L64.93 0L64.93-0.85L61.27-0.85L61.27-3.71L64.26-3.71L64.26-4.56L61.27-4.56L61.27-7.03L64.81-7.03L64.81-7.87ZM67.99-4.07L65.70 0L66.76 0L67.90-2.12C67.99-2.32 68.09-2.51 68.20-2.72C68.30-2.92 68.41-3.14 68.52-3.38L68.57-3.38C68.70-3.14 68.81-2.92 68.92-2.72C69.03-2.51 69.14-2.32 69.24-2.12L70.39 0L71.50 0L69.20-4.02L71.35-7.87L70.30-7.87L69.25-5.86C69.16-5.67 69.07-5.49 68.98-5.32C68.90-5.15 68.80-4.95 68.69-4.72L68.64-4.72C68.52-4.95 68.41-5.15 68.32-5.32C68.23-5.49 68.13-5.67 68.03-5.86L66.96-7.87L65.86-7.87ZM74.15-7.03L74.15 0L75.16 0L75.16-7.03L77.53-7.03L77.53-7.87L71.77-7.87L71.77-7.03ZM80.92-3.94C80.92-3.30 81.00-2.72 81.18-2.21C81.36-1.71 81.60-1.28 81.91-0.93C82.22-0.58 82.60-0.32 83.03-0.13C83.46 0.05 83.94 0.14 84.46 0.14C84.98 0.14 85.46 0.06 85.88-0.11C86.30-0.29 86.64-0.50 86.89-0.77L86.89-4.08L84.31-4.08L84.31-3.25L85.98-3.25L85.98-1.20C85.82-1.06 85.61-0.94 85.36-0.86C85.11-0.77 84.84-0.73 84.56-0.73C84.14-0.73 83.77-0.81 83.44-0.96C83.12-1.11 82.85-1.33 82.63-1.61C82.41-1.89 82.24-2.23 82.12-2.62C82.01-3.02 81.95-3.46 81.95-3.96C81.95-4.45 82.01-4.89 82.13-5.28C82.26-5.67 82.43-6.01 82.66-6.28C82.88-6.56 83.15-6.77 83.47-6.92C83.79-7.07 84.15-7.14 84.55-7.14C84.95-7.14 85.28-7.07 85.54-6.93C85.80-6.79 86.03-6.62 86.23-6.41L86.80-7.04C86.56-7.28 86.27-7.51 85.90-7.71C85.54-7.91 85.08-8.02 84.54-8.02C84.01-8.02 83.53-7.92 83.09-7.73C82.65-7.55 82.27-7.28 81.94-6.92C81.62-6.57 81.37-6.14 81.19-5.64C81.01-5.14 80.92-4.57 80.92-3.94ZM88.78-7.87L88.78 0L93.43 0L93.43-0.85L89.77-0.85L89.77-3.71L92.76-3.71L92.76-4.56L89.77-4.56L89.77-7.03L93.31-7.03L93.31-7.87ZM95.10-7.87L95.10 0L96.05 0L96.05-4.12C96.05-4.53 96.03-4.95 96.01-5.36C95.98-5.77 95.95-6.18 95.92-6.58L95.96-6.58L96.82-4.96L99.67 0L100.70 0L100.70-7.87L99.76-7.87L99.76-3.80C99.76-3.39 99.77-2.97 99.80-2.54C99.83-2.11 99.85-1.70 99.88-1.30L99.83-1.30L98.98-2.93L96.13-7.87ZM102.86-7.87L102.86 0L107.52 0L107.52-0.85L103.86-0.85L103.86-3.71L106.85-3.71L106.85-4.56L103.86-4.56L103.86-7.03L107.40-7.03L107.40-7.87ZM110.18-4.14L110.18-7.07L111.50-7.07C112.12-7.07 112.59-6.96 112.92-6.76C113.25-6.55 113.41-6.18 113.41-5.66C113.41-5.15 113.25-4.77 112.92-4.52C112.59-4.27 112.12-4.14 111.50-4.14ZM113.51 0L114.64 0L112.64-3.43C113.18-3.57 113.61-3.82 113.93-4.19C114.25-4.56 114.41-5.05 114.41-5.66C114.41-6.07 114.34-6.42 114.20-6.70C114.07-6.98 113.88-7.20 113.63-7.38C113.39-7.56 113.10-7.68 112.76-7.76C112.42-7.83 112.05-7.87 111.65-7.87L109.19-7.87L109.19 0L110.18 0L110.18-3.32L111.61-3.32ZM119.39-3.20L117.02-3.20L117.40-4.40C117.54-4.84 117.68-5.28 117.80-5.72C117.93-6.15 118.06-6.60 118.18-7.06L118.22-7.06C118.35-6.60 118.48-6.15 118.61-5.72C118.74-5.28 118.87-4.84 119.02-4.40ZM119.64-2.40L120.38 0L121.45 0L118.79-7.87L117.66-7.87L115.00 0L116.02 0L116.77-2.40ZM123.72-7.03L123.72 0L124.73 0L124.73-7.03L127.10-7.03L127.10-7.87L121.34-7.87L121.34-7.03ZM128.52-7.87L128.52 0L129.52 0L129.52-7.87ZM134.58 0.14C135.08 0.14 135.53 0.05 135.94-0.14C136.35-0.34 136.71-0.61 137.01-0.97C137.31-1.32 137.54-1.75 137.71-2.26C137.87-2.77 137.95-3.34 137.95-3.97C137.95-4.60 137.87-5.16 137.71-5.66C137.54-6.16 137.31-6.58 137.01-6.93C136.71-7.28 136.35-7.55 135.94-7.73C135.53-7.92 135.08-8.02 134.58-8.02C134.08-8.02 133.63-7.92 133.22-7.74C132.81-7.56 132.45-7.29 132.16-6.94C131.86-6.59 131.63-6.17 131.47-5.67C131.30-5.17 131.22-4.60 131.22-3.97C131.22-3.34 131.30-2.77 131.47-2.26C131.63-1.75 131.86-1.32 132.16-0.97C132.45-0.61 132.81-0.34 133.22-0.14C133.63 0.05 134.08 0.14 134.58 0.14ZM134.58-0.73C134.23-0.73 133.91-0.81 133.63-0.96C133.34-1.11 133.10-1.33 132.89-1.61C132.69-1.90 132.53-2.24 132.42-2.63C132.31-3.03 132.25-3.48 132.25-3.97C132.25-4.46 132.31-4.90 132.42-5.29C132.53-5.68 132.69-6.02 132.89-6.29C133.10-6.56 133.34-6.77 133.63-6.92C133.91-7.07 134.23-7.14 134.58-7.14C134.93-7.14 135.25-7.07 135.53-6.92C135.82-6.77 136.06-6.56 136.27-6.29C136.47-6.02 136.63-5.68 136.74-5.29C136.85-4.90 136.91-4.46 136.91-3.97C136.91-3.48 136.85-3.03 136.74-2.63C136.63-2.24 136.47-1.90 136.27-1.61C136.06-1.33 135.82-1.11 135.53-0.96C135.25-0.81 134.93-0.73 134.58-0.73ZM139.64-7.87L139.64 0L140.59 0L140.59-4.12C140.59-4.53 140.58-4.95 140.55-5.36C140.52-5.77 140.49-6.18 140.46-6.58L140.51-6.58L141.36-4.96L144.22 0L145.25 0L145.25-7.87L144.30-7.87L144.30-3.80C144.30-3.39 144.31-2.97 144.34-2.54C144.37-2.11 144.40-1.70 144.42-1.30L144.37-1.30L143.52-2.93L140.68-7.87Z"
                        transform="translate(-0.336, 8.016)"></path>
                </g>
            </g>
        </g>
    </g>
    <defs v-gra="od"></defs>
</svg>